<svg width="746" height="233" viewBox="0 0 746 233" fill="none" xmlns="http://www.w3.org/2000/svg">
<circle cx="647" cy="116" r="59" fill="#272727"/>
<path d="M631.73 172.99C619.822 169.799 609.213 162.959 601.392 153.429C593.572 143.9 588.933 132.16 588.126 119.859C587.32 107.558 590.387 95.3127 596.897 84.844C603.407 74.3753 613.032 66.2087 624.422 61.4911C635.811 56.7735 648.392 55.7419 660.398 58.5413C672.403 61.3406 683.23 67.8302 691.359 77.0986C699.487 86.367 704.508 97.9487 705.716 110.217C706.924 122.485 704.259 134.824 698.096 145.5L667.438 127.8C669.904 123.53 670.97 118.594 670.486 113.687C670.003 108.779 667.995 104.147 664.743 100.439C661.492 96.7321 657.161 94.1362 652.359 93.0165C647.557 91.8968 642.524 92.3094 637.969 94.1965C633.413 96.0835 629.563 99.3501 626.959 103.538C624.355 107.725 623.128 112.623 623.451 117.544C623.773 122.464 625.629 127.16 628.757 130.972C631.885 134.783 636.129 137.52 640.892 138.796L631.73 172.99Z" fill="#D9D9D9"/>
<path d="M631.73 59.0104C644.275 55.6489 657.579 56.5209 669.578 61.4911C681.578 66.4614 691.602 75.2521 698.096 86.5L667.438 104.2C664.841 99.7009 660.831 96.1846 656.031 94.1965C651.232 92.2083 645.91 91.8596 640.892 93.2042L631.73 59.0104Z" fill="#272727"/>
<path d="M618 116C618 99.9837 630.984 87 647 87C663.016 87 676 99.9837 676 116C676 132.016 663.016 145 647 145C630.984 145 618 132.016 618 116ZM670.2 116C670.2 103.187 659.813 92.8 647 92.8C634.187 92.8 623.8 103.187 623.8 116C623.8 128.813 634.187 139.2 647 139.2C659.813 139.2 670.2 128.813 670.2 116Z" fill="#D9D9D9"/>
<circle cx="510" cy="116" r="59" fill="#272727"/>
<path d="M510 175C522.988 175 535.613 170.714 545.917 162.808C556.221 154.901 563.628 143.816 566.99 131.27L527.097 120.581C526.088 124.345 523.866 127.67 520.775 130.042C517.684 132.414 513.896 133.7 510 133.7L510 175Z" fill="#D9D9D9"/>
<path d="M525.27 172.99C532.754 170.984 539.77 167.525 545.917 162.808C552.064 158.091 557.222 152.21 561.096 145.5L540.657 133.7C538.333 137.726 535.238 141.255 531.55 144.085C527.862 146.915 523.653 148.991 519.162 150.194L525.27 172.99Z" fill="#272727"/>
<path d="M510 175C497.672 175 485.654 171.139 475.634 163.958C465.613 156.777 458.094 146.638 454.131 134.965C450.169 123.292 449.962 110.67 453.541 98.8732C457.119 87.0764 464.303 76.6968 474.083 69.1922C483.863 61.6876 495.749 57.435 508.07 57.0316C520.391 56.6282 532.529 60.0944 542.779 66.9433C553.029 73.7922 560.876 83.6797 565.218 95.2172C569.561 106.755 570.18 119.363 566.99 131.27L538.495 123.635C540.09 117.681 539.78 111.377 537.609 105.609C535.438 99.8399 531.514 94.8961 526.389 91.4717C521.264 88.0472 515.195 86.3141 509.035 86.5158C502.874 86.7175 496.932 88.8438 492.042 92.5961C487.151 96.3484 483.56 101.538 481.77 107.437C479.981 113.335 480.084 119.646 482.066 125.482C484.047 131.319 487.807 136.389 492.817 139.979C497.827 143.569 503.836 145.5 510 145.5L510 175Z" fill="#D9D9D9"/>
<circle cx="373" cy="116" r="59" fill="#272727"/>
<path d="M343.5 167.096C332.252 160.602 323.461 150.578 318.491 138.578C313.521 126.579 312.649 113.275 316.01 100.73C319.372 88.1843 326.779 77.0987 337.083 69.1922C347.387 61.2856 360.012 57 373 57C385.988 57 398.613 61.2856 408.917 69.1922C419.221 77.0987 426.628 88.1843 429.99 100.73C433.351 113.275 432.479 126.579 427.509 138.578C422.539 150.578 413.748 160.602 402.5 167.096L373 116L343.5 167.096Z" fill="#D9D9D9"/>
<path d="M314 116C314 108.252 315.526 100.58 318.491 93.4217C321.456 86.2635 325.802 79.7594 331.281 74.2807C336.759 68.802 343.263 64.4561 350.422 61.4911C357.58 58.5261 365.252 57 373 57C380.748 57 388.42 58.5261 395.578 61.4911C402.736 64.4561 409.241 68.8021 414.719 74.2807C420.198 79.7594 424.544 86.2635 427.509 93.4217C430.474 100.58 432 108.252 432 116L402.5 116C402.5 112.126 401.737 108.29 400.254 104.711C398.772 101.132 396.599 97.8797 393.86 95.1404C391.12 92.401 387.868 90.2281 384.289 88.7456C380.71 87.263 376.874 86.5 373 86.5C369.126 86.5 365.29 87.263 361.711 88.7456C358.132 90.2281 354.88 92.401 352.14 95.1404C349.401 97.8797 347.228 101.132 345.745 104.711C344.263 108.29 343.5 112.126 343.5 116L314 116Z" fill="#272727"/>
<circle cx="236" cy="116" r="59" fill="#272727"/>
<path d="M277.719 74.2807C285.971 82.532 291.59 93.0448 293.866 104.49C296.143 115.935 294.974 127.797 290.509 138.578C286.043 149.359 278.481 158.574 268.779 165.057C259.076 171.54 247.669 175 236 175C224.331 175 212.924 171.54 203.221 165.057C193.519 158.574 185.957 149.359 181.491 138.578C177.026 127.797 175.857 115.935 178.134 104.49C180.41 93.0448 186.029 82.532 194.281 74.2807L215.14 95.1403C211.015 99.266 208.205 104.522 207.067 110.245C205.929 115.967 206.513 121.899 208.746 127.289C210.978 132.68 214.759 137.287 219.611 140.528C224.462 143.77 230.165 145.5 236 145.5C241.835 145.5 247.538 143.77 252.389 140.528C257.241 137.287 261.022 132.68 263.254 127.289C265.487 121.899 266.071 115.967 264.933 110.245C263.795 104.522 260.985 99.266 256.86 95.1403L277.719 74.2807Z" fill="#D9D9D9"/>
<circle cx="99" cy="116" r="59" fill="#272727"/>
<path d="M152.701 140.438C158.257 128.229 159.487 114.491 156.188 101.489C152.889 88.4878 145.258 76.9983 134.553 68.9153C123.848 60.8323 110.709 56.6382 97.3008 57.0245C83.8927 57.4108 71.0164 62.3544 60.7949 71.0404C50.5733 79.7264 43.6165 91.6361 41.0716 104.806C38.5267 117.976 40.5455 131.62 46.7951 143.489C53.0448 155.358 63.1523 164.743 75.4512 170.097C87.7501 175.451 101.506 176.454 114.452 172.941L99 116L152.701 140.438Z" fill="#D9D9D9"/>
<path d="M149 116C149 143.614 126.614 166 99 166C71.3858 166 49 143.614 49 116C49 88.3858 71.3858 66 99 66C126.614 66 149 88.3858 149 116ZM69 116C69 132.569 82.4315 146 99 146C115.569 146 129 132.569 129 116C129 99.4315 115.569 86 99 86C82.4315 86 69 99.4315 69 116Z" fill="#272727"/>
<circle cx="129" cy="149" r="13" fill="#D9D9D9"/>
</svg>
